PathFileType	4	(X/Y/Z)	C:/Users/beibeiliu/ov580/test_trc/User2\sequence.36_training_dense_left.trc
DataRate	CameraRate	NumFrames	NumMarkers	Units	OrigDataRate	OrigDataStartFrame	OrigNumFrames
120	120	17	19	mm	120	63	500
Frame#	Time	ThumbCMC			ThumbMCP			ThumbIP			ThumbTip			IndexMCP			IndexPIP			IndexTip			MiddleMCP			MiddlePIP			MiddleTip			RingMCP			RingPIP			RingTip			PinkyMCP			PinkyPIP			PinkyTip			BackHand1			BackHand2			BackHand3	
		X0	Y0	Z0	X1	Y1	Z1	X2	Y2	Z2	X3	Y3	Z3	X4	Y4	Z4	X5	Y5	Z5	X6	Y6	Z6	X7	Y7	Z7	X8	Y8	Z8	X9	Y9	Z9	X10	Y10	Z10	X11	Y11	Z11	X12	Y12	Z12	X13	Y13	Z13	X14	Y14	Z14	X15	Y15	Z15	X16	Y16	Z16	X17	Y17	Z17	X18	Y18	Z18	
62	0.516667	-227.603	-18.2263	74.9983	-205.49	-5.15099	45.7027	-182.135	-2.70825	24.1898	-157.32	-18.882	11.612	-207.269	-69.0475	6.25464	-187.887	-66.0052	-17.8337	-157.392	-45.1015	-21.0743	-190.819	-84.7283	10.186	-162.31	-72.1404	-13.8153	-137.353	-45.5813	-4.59594	-170.571	-95.2778	25.4536	-150.271	-82.6361	5.32552	-135.21	-48.7188	16.5335	-157.773	-95.9731	49.0542	-134.019	-81.1581	28.6839	-127.823	-48.7541	33.5071	-204.742	-87.6452	81.051	-216.662	-79.6653	107.385	-232.982	-63.4904	77.2265	
63	0.525	-224.409	-18.5039	74.9717	-203.615	-4.25399	47.5953	-178.834	-4.5969	23.7307	-155.096	-19.7818	12.7931	-207.381	-66.0849	6.39653	-184.225	-62.3641	-18.5282	-156.833	-41.911	-20.6493	-188.366	-83.5282	8.43811	-162.244	-71.2778	-11.7745	-139.169	-40.3266	-1.70965	-174.192	-93.5118	26.289	-149.775	-80.0518	5.40022	-135.053	-50.6062	17.5735	-162.239	-95.3212	48.6251	-135.118	-83.3928	28.6258	-131.807	-50.0266	32.792	-205.464	-86.4639	78.2241	-216.058	-83.8419	110.411	-234.141	-63.1974	74.4913	
64	0.533333	-221.679	-19.7717	74.9967	-200.876	-1.41817	50.7812	-173.836	-3.72165	20.2753	-152.947	-19.8001	14.611	-206.46	-64.4993	4.13969	-182.958	-59.1692	-19.4673	-159.001	-40.8129	-20.6047	-191.028	-79.5317	6.61999	-158.361	-66.8048	-10.5408	-136.088	-38.8375	4.2731	-173.653	-94.8626	22.5432	-150.101	-80.9113	5.22405	-137.277	-48.8665	19.0949	-163.333	-95.316	44.8787	-137.058	-83.0848	26.3925	-127.454	-54.1755	35.3153	-205.968	-87.9808	77.3631	-217.083	-81.1738	107.285	-232.747	-59.3641	75.2121	
65	0.541667	-219.036	-16.2996	75.9695	-195.3	-2.66679	48.2367	-170.977	-0.959198	27.836	-149.869	-19.2164	14.7901	-209.798	-58.7943	7.16536	-183.058	-56.6458	-17.7688	-153.221	-38.7621	-18.2197	-191.257	-76.0458	5.73861	-157.026	-66.2186	-8.25635	-134.296	-42.5654	7.71098	-176.92	-88.8945	19.0111	-149.922	-76.6439	5.48497	-135.19	-49.897	22.241	-163.55	-96.1309	40.996	-136.174	-84.7203	28.0806	-131.659	-52.7073	33.7201	-207.929	-85.4407	77.7486	-218.746	-84.0421	104.429	-233.244	-59.4269	76.6925	
66	0.55	-217.034	-12.5482	76.0325	-193.165	2.27128	51.7973	-166.551	-0.0582005	26.8695	-145.165	-18.0502	13.7659	-209.788	-54.4782	6.72035	-184.698	-53.0884	-18.4541	-153.787	-36.6855	-17.6916	-189.42	-75.2041	5.77901	-161.115	-63.3166	-10.4138	-134.386	-37.9684	11.9105	-175.463	-88.1115	19.2047	-147.167	-77.8079	6.75684	-134.97	-49.6041	21.363	-165.829	-97.1958	44.8646	-139.634	-84.08	26.9274	-127.545	-56.5149	38.0478	-210.946	-84.1661	76.119	-218.989	-80.6285	103.658	-234.558	-55.8222	76.1824	
67	0.558333	-216.767	-10.9205	75.3454	-190.692	2.20065	53.3147	-164.218	1.97726	26.0128	-144.457	-21.2543	17.2566	-206.312	-55.5435	7.21753	-183.907	-52.2553	-17.125	-153.292	-37.3468	-18.1157	-188.411	-73.9651	8.22154	-155.958	-62.6586	-7.18235	-133.031	-40.071	13.2127	-175.027	-87.3396	20.0667	-145.822	-73.6075	8.26681	-134.23	-46.6554	25.4782	-162.597	-97.3377	41.3134	-135.869	-82.3829	27.7565	-130.051	-52.357	39.7274	-211.038	-85.0696	75.3339	-219.623	-78.2721	102.146	-233.229	-54.0979	75.1488	
68	0.566667	-216.12	-10.1916	77.1165	-189.985	3.43884	53.2597	-165.674	0.62452	30.4647	-142.923	-18.2048	16.6147	-204.793	-54.742	4.50352	-178.559	-52.6192	-18.4136	-149.894	-40.9811	-15.5317	-187.746	-75.1383	8.2241	-155.91	-65.3415	-5.28951	-134.081	-38.5884	12.9818	-176.016	-86.189	21.5449	-146.181	-74.7882	9.18159	-130.968	-49.9681	26.6975	-162.223	-98.7311	44.4025	-136.959	-82.1045	27.4478	-130.646	-53.3666	37.2602	-209.229	-84.3616	72.5332	-220.411	-81.1004	104.323	-230.814	-54.8001	74.9755	
69	0.575	-215.201	-13.584	79.4784	-189.811	0.148326	52.5361	-165.07	1.01945	28.003	-143.17	-16.5598	16.9095	-205.935	-53.0343	3.41254	-178.534	-52.9281	-17.3554	-149.675	-41.1068	-15.7274	-184.401	-75.6407	7.16976	-154.129	-65.9589	-4.59031	-132.841	-37.1465	16.7887	-171.915	-88.9947	23.1456	-144.841	-78.3428	10.3765	-132.517	-48.1415	26.4148	-161.631	-98.7801	43.7566	-137.004	-82.268	27.8489	-126.762	-55.9742	37.8637	-209.617	-85.9107	77.3361	-219.7	-79.9128	108.774	-230.978	-54.7467	76.4267	
70	0.583333	-216.245	-11.1502	77.846	-190.863	-1.84063	55.3399	-164.773	0.899494	28.729	-144.206	-18.6334	17.0942	-206.01	-54.7689	3.95983	-184.833	-53.8303	-17.9252	-147.743	-42.0725	-16.3101	-187.111	-72.8544	8.47148	-153.754	-65.1545	-3.9968	-134.529	-36.623	14.4284	-172.172	-89.9586	23.9919	-143.549	-73.3699	10.4026	-131.285	-45.4792	31.2008	-159.547	-98.9447	43.9216	-133.416	-85.4086	31.571	-128.453	-51.6601	40.3658	-207.446	-87.2406	75.301	-221.038	-76.0198	105.843	-231.098	-54.3761	76.8021	
71	0.591667	-215.652	-12.4746	74.6785	-191.481	2.83529	56.0003	-165.26	-0.617055	30.5076	-142.749	-17.4273	17.3148	-202.697	-58.5761	6.49977	-179.753	-55.72	-17.111	-147.697	-42.6898	-16.2431	-187.166	-74.8963	9.00178	-154.602	-63.0567	-5.30435	-132.387	-35.7793	17.563	-171.278	-87.9021	21.0995	-145.839	-78.3621	10.6168	-130.722	-46.686	31.662	-162.133	-97.7838	48.4307	-134.593	-83.0643	31.3573	-126.939	-51.3303	40.546	-207.208	-86.4711	73.5629	-220.985	-78.915	104.672	-232.568	-52.5375	73.4439	
72	0.6	-216.58	-9.98889	79.2466	-191.073	2.16176	55.9079	-165.352	3.63479	29.1626	-144.972	-17.9183	19.1452	-203.713	-57.9004	5.99587	-181.247	-58.1632	-16.3756	-151.256	-44.1345	-18.4707	-184.288	-76.6159	8.13508	-150.336	-65.4339	-2.76027	-130.723	-40.7835	17.3766	-171.439	-89.756	22.5573	-143.87	-76.2381	10.3254	-131.906	-46.4096	30.0172	-164.357	-95.8383	45.9575	-134.827	-85.5575	31.6654	-122.884	-55.4374	41.9912	-209.058	-87.4695	76.6892	-223.453	-77.45	107.068	-231.628	-54.095	76.6401	
73	0.608333	-216.123	-10.9325	80.4095	-191.108	-0.981569	54.6755	-163.97	0.201303	28.0835	-143.377	-13.8436	17.5586	-205.612	-54.2536	7.02182	-182.328	-54.0043	-18.6924	-147.856	-44.8796	-16.7107	-188.413	-73.5239	8.44652	-155.536	-68.1052	-4.96926	-129.8	-41.8509	17.6632	-176.106	-88.2444	22.6268	-145.599	-75.5972	10.2322	-131.185	-49.4722	31.1949	-163.983	-98.0326	42.7058	-134.543	-87.7414	31.5551	-127.206	-55.9092	40.5	-210.495	-83.5645	72.7971	-220.544	-80.9141	103.958	-230.93	-53.4973	74.7531	
74	0.616667	-214.043	-12.0033	80.4006	-190.123	4.61351	55.3224	-163.173	1.60027	28.6947	-143.55	-11.3077	16.0256	-205.089	-52.8467	6.91596	-182.196	-54.8251	-16.6505	-150.126	-42.6223	-18.2095	-190.199	-73.519	5.72867	-157.373	-68.1944	-6.21763	-132.262	-44.8009	11.12	-180.557	-86.9468	21.9902	-146.466	-79.5499	8.76756	-132.873	-56.6472	26.0723	-167.631	-100.459	44.1163	-142.519	-90.8072	28.9062	-128.339	-62.0038	37.6314	-210.247	-84.232	77.4421	-226.182	-75.5156	104.398	-232.316	-49.6227	75.7589	
75	0.625	-212.458	-7.2073	79.5188	-186.503	3.43676	57.1832	-162.928	5.66838	31.7299	-142.302	-9.89758	16.8279	-206.549	-52.4981	7.3043	-180.886	-53.2411	-16.5215	-151.033	-41.6699	-17.8948	-195.328	-71.3133	6.15955	-161.041	-69.2409	-8.1884	-132.872	-47.2264	13.763	-182.5	-89.4071	20.1663	-154.997	-80.1238	5.0993	-133.363	-57.3201	28.6615	-174.681	-98.1441	43.3402	-145.734	-94.5272	26.6837	-131.001	-65.2267	34.9182	-214.882	-80.0472	70.3307	-228.1	-72.7234	105.577	-234.031	-48.4321	78.7945	
76	0.633333	-207.427	-5.12133	78.9516	-181.431	5.63144	59.7591	-157.62	2.10585	33.834	-138.712	-9.70358	15.7643	-209.293	-41.9842	6.92855	-184.541	-45.7164	-18.6775	-151.85	-43.6337	-15.78	-198.22	-68.1051	3.32129	-164.164	-68.5798	-9.86243	-136.873	-50.519	10.5154	-190.086	-83.9372	17.2574	-156.717	-82.5013	4.71539	-137.909	-63.7383	25.6335	-180.061	-100.262	38.6352	-152.271	-95.0446	22.9487	-131.699	-67.6144	36.0279	-218.137	-77.1153	74.0677	-228.929	-75.3158	101.812	-233.583	-45.2066	74.7689	
77	0.641667	-202.768	-7.28296	84.8169	-175.54	1.19057	62.3381	-150.15	3.4916	36.836	-134.716	-10.6014	19.2045	-207.832	-39.0234	7.71198	-183.549	-42.2295	-17.6693	-148.723	-42.702	-14.1838	-202.859	-61.1102	3.44614	-170.516	-63.8919	-11.7025	-140.386	-55.2559	13.7237	-193.31	-82.1014	14.561	-161.298	-81.5895	4.32386	-140.873	-64.6144	28.6795	-187.624	-96.4847	33.3633	-157.267	-92.5188	19.6169	-140.42	-72.9249	34.5381	-224.359	-75.9232	70.2647	-231.514	-70.3016	102.609	-233.28	-40.4026	75.9812	
78	0.65	-199.379	-2.35298	86.4097	-172.058	1.03568	61.7273	-148.387	0.0986678	38.3572	-134.895	-15.8762	20.3305	-205.341	-34.4328	6.04796	-183.698	-37.2815	-16.4685	-150.384	-40.4799	-11.9686	-204.706	-60.7861	6.28655	-167.484	-61.7181	-10.673	-141.939	-52.4515	14.5325	-198.448	-78.652	15.6427	-165.318	-81.88	2.39312	-144.806	-67.2965	24.9951	-192.317	-93.8675	35.9125	-160.042	-91.1367	18.4246	-141.099	-74.6052	35.2866	-224.455	-69.2075	71.9572	-232.494	-66.3075	100.449	-230.975	-32.9978	77.8464	
